<svg xmlns="http://www.w3.org/2000/svg" height="24" viewBox="0 -960 960 960" width="24"><path d="M599.283-151.869q-137.109 0-232.62-95.511T271.152-480q0-137.109 95.511-232.62t232.62-95.511q137.108 0 232.619 95.511T927.413-480q0 137.109-95.511 232.62t-232.619 95.511Zm-328.131-10Q164.435-191.543 98.511-280.054 32.587-368.565 32.587-480T98.51-679.946q65.924-88.511 172.641-118.185v95.718q-67.696 26.913-107.63 87.717Q123.587-553.891 123.587-480q0 73.652 39.935 134.456 39.934 60.805 107.63 87.957v95.718Z"/></svg>