<svg xmlns="http://www.w3.org/2000/svg" height="24" viewBox="0 -960 960 960" width="24"><path d="M789.13-53.13 625.435-215.065q-34.522 11.239-70.5 16.859-35.978 5.619-74.935 5.619-152.674 0-272.707-84.935Q87.261-362.456 32.587-500q20.76-52.522 53-98.859 32.239-46.337 72.761-83.293L49.304-792.717l58.631-58.631 739.587 739.826L789.13-53.13ZM480-320q9.804 0 18.348-.88 8.543-.881 18.348-3.642L304.043-536.696q-2.521 9.805-3.282 18.468Q300-509.565 300-500q0 75 52.5 127.5T480-320Zm299.652 20.63L646.196-432.065q6.521-15.805 10.163-32.946Q660-482.152 660-500q0-75-52.5-127.5T480-680q-18.326 0-34.989 3.641-16.663 3.642-32.946 10.924L304.087-773.413q41-17 84.956-25.5 43.957-8.5 90.957-8.5 152.435 0 272.467 84.695Q872.5-638.022 927.413-500q-23 59.478-60.978 110.935-37.978 51.456-86.783 89.695ZM577.674-500.587l-98-98q22.978-4.043 42.054 3.544t32.968 22.478q13.891 14.891 20.076 34.087 6.184 19.195 2.902 37.891Z"/></svg>